# Blender v2.80 (sub 75) OBJ File: 'fighter_dagger.blend'
# www.blender.org
mtllib fighter_dagger.mtl
o Cube.001
v 3.777158 0.527969 -1.117981
v 3.777158 0.527969 1.117981
v -7.391790 -0.402437 -0.241787
v -7.709402 -0.905264 -0.317070
v -7.391790 -0.402437 0.241787
v -7.709402 -0.905264 0.317070
v -2.817785 -0.211986 -1.181458
v -2.817787 -0.211987 1.181458
v -1.004205 0.580955 1.384360
v -1.004205 0.580955 -1.384360
v 5.198566 -1.297823 -1.015804
v -5.280833 -1.211441 -0.953166
v 3.976308 1.000000 -0.757411
v -5.280833 -1.211441 0.953166
v -0.050887 1.000000 0.757411
v 3.976308 1.000000 0.757411
v 5.198566 -1.297823 1.015804
v -0.050887 1.000000 -0.757411
v 4.044961 -0.211986 -4.425790
v -2.619541 -0.083205 -1.737140
v 3.777158 0.211986 -2.961113
v -2.619541 -0.083206 1.737140
v -0.330457 0.218830 2.035473
v 3.777158 0.211986 2.961113
v 4.044961 -0.211986 4.425790
v -0.330457 0.218830 -2.035473
v 4.218897 1.000000 1.000000
v -2.403407 1.000000 1.000000
v 4.218897 1.000000 -1.000000
v -2.403407 1.000000 -1.000000
v 3.976308 -0.025923 0.757411
v -0.050887 -0.025923 0.757411
v 3.976308 -0.025923 -0.757411
v -0.050887 -0.025923 -0.757411
v -5.700911 -1.086382 -0.841729
v -5.700911 -1.086382 0.841729
v 5.482202 -1.000000 -1.299440
v 5.482202 -1.000000 1.299440
v -5.482202 -1.000000 -1.299440
v -5.482202 -1.000000 1.299440
v -5.198566 -1.297823 -1.015804
v -5.198566 -1.297823 1.015804
v -8.042944 -1.182860 -0.393645
v -8.042944 -1.182860 -0.517495
v -8.042944 -1.114963 -0.582158
v -8.042944 -1.114963 -0.458308
v -5.983712 -1.114963 -0.582158
v -6.107562 -1.114963 -0.458308
v -6.107562 -1.114963 0.458308
v -5.983712 -1.114963 0.582158
v -6.042899 -1.182860 -0.393645
v -5.919049 -1.182860 -0.517495
v -5.919049 -1.182860 0.517495
v -6.042899 -1.182860 0.393645
v -8.042944 -1.182860 0.393645
v -8.042944 -1.182860 0.517495
v -8.042944 -1.114963 0.582158
v -8.042944 -1.114963 0.458308
v 5.065105 -0.771313 -1.265201
v 3.853115 0.318096 -1.135985
v 5.065105 -0.771313 1.265201
v 3.853115 0.318096 1.135985
v 0.613588 -0.192347 -1.746678
v 0.613588 -0.771313 -1.265201
v 0.048027 -0.211986 -1.181458
v 0.613587 -0.771313 1.265201
v 0.613587 -0.192347 1.746679
v 0.048026 -0.211986 1.181458
v 3.970494 -0.207933 -1.746949
v 3.970494 -0.211986 -2.455181
v 3.970494 0.239545 -1.226532
v 3.970494 -0.526535 -1.476059
v 3.970494 -0.211986 2.455181
v 3.970494 -0.207933 1.746949
v 3.970494 -0.526535 1.476059
v 3.970494 0.239545 1.226532
v 4.137333 -0.454584 -2.027720
v 4.136595 -0.202970 -2.352080
v 4.136549 0.169415 -1.323328
v 4.137562 -0.456073 -1.527055
v 4.136595 -0.202970 2.352080
v 4.137333 -0.454584 2.027720
v 4.137562 -0.456072 1.527055
v 4.136549 0.169415 1.323328
v 3.961305 0.241034 -2.044247
v 3.961305 0.241034 2.044247
v 4.145351 0.170663 -2.013147
v 4.145351 0.170663 2.013147
v 4.053663 -0.211986 2.455181
v 4.053663 0.239545 1.226532
v 4.053663 0.239545 -1.226532
v 4.053663 -0.211986 -2.455181
v 4.053663 0.241034 -2.044247
v 4.053663 0.241034 2.044247
v 4.136831 -0.526535 -1.476059
v 4.136831 -0.524826 -2.051886
v 4.136831 -0.211986 -2.455181
v 4.146020 0.241034 -2.044247
v 4.136831 0.239545 -1.226532
v 4.146020 0.241034 2.044247
v 4.136831 -0.211986 2.455181
v 4.136831 -0.524826 2.051886
v 4.136831 -0.526535 1.476059
v 4.136831 0.239545 1.226532
v 5.563442 -0.478409 -1.527056
v 5.563213 -0.476921 -2.027720
v 5.562475 -0.225307 -2.352081
v 5.571230 0.148326 -2.013147
v 5.562428 0.147078 -1.323329
v 5.571230 0.148326 2.013146
v 5.562475 -0.225307 2.352080
v 5.563213 -0.476921 2.027719
v 5.563442 -0.478409 1.527055
v 5.562428 0.147078 1.323328
v 7.714606 -0.447238 -1.497864
v 7.713672 -0.445577 -2.054877
v 7.710671 -0.226168 -2.337704
v 7.722709 0.129396 -2.015123
v 7.710507 0.128147 -1.310473
v 7.722709 0.129396 2.015122
v 7.710671 -0.226168 2.337703
v 7.713672 -0.445577 2.054876
v 7.714606 -0.447238 1.497862
v 7.710507 0.128148 1.310472
v 7.712737 -0.629091 -1.366250
v 7.712394 -0.626859 -2.117247
v 7.711287 -0.249437 -2.603788
v 7.724420 0.311012 -2.095388
v 7.711216 0.309140 -1.060660
v 7.724420 0.311012 2.095387
v 7.711287 -0.249437 2.603787
v 7.712394 -0.626858 2.117246
v 7.712737 -0.629091 1.366249
v 7.711216 0.309141 1.060659
v 6.938427 -0.441329 -1.497864
v 6.937493 -0.439668 -2.054877
v 6.934492 -0.220259 -2.337704
v 6.946530 0.135305 -2.015123
v 6.934328 0.134056 -1.310473
v 6.946530 0.135305 2.015121
v 6.934492 -0.220259 2.337703
v 6.937493 -0.439668 2.054876
v 6.938427 -0.441329 1.497862
v 6.934328 0.134057 1.310472
vt 0.615842 0.030324
vt 0.615842 0.219676
vt 0.615842 0.219676
vt 0.615842 0.030324
vt 0.434238 0.558033
vt 0.565762 0.565077
vt 0.565762 0.684923
vt 0.434238 0.691967
vt 0.381467 0.777284
vt 0.618533 0.777284
vt 0.618533 0.972716
vt 0.381467 0.972716
vt 0.125000 0.500000
vt 0.375000 0.500000
vt 0.375000 0.750000
vt 0.125000 0.750000
vt 0.776498 0.723612
vt 0.761467 0.724149
vt 0.755841 0.724351
vt 0.739671 0.724929
vt 0.723502 0.725508
vt 0.723502 0.725508
vt 0.776498 0.723612
vt 0.375000 0.750000
vt 0.375000 0.500000
vt 0.625000 0.500000
vt 0.625000 0.750000
vt 0.505841 0.275649
vt 0.473502 0.257990
vt 0.473502 0.245149
vt 0.511467 0.275851
vt 0.723502 0.535028
vt 0.723502 0.614571
vt 0.653586 0.636461
vt 0.653586 0.742892
vt 0.625000 0.750000
vt 0.625000 0.500000
vt 0.473502 0.464972
vt 0.473502 0.274492
vt 0.489671 0.275071
vt 0.526498 0.276388
vt 0.526498 0.276388
vt 0.473502 0.274492
vt 0.875000 0.500000
vt 0.776498 0.537339
vt 0.526498 0.462661
vt 0.625000 0.250000
vt 0.403586 0.257108
vt 0.375000 0.250000
vt 0.875000 0.750000
vt 0.526498 0.462661
vt 0.473502 0.464972
vt 0.776498 0.537339
vt 0.723502 0.535028
vt 0.403586 0.363539
vt 0.473502 0.385429
vt 0.384158 0.219676
vt 0.625000 0.250000
vt 0.375000 0.250000
vt 0.384158 0.030324
vt 0.375000 0.000000
vt 0.625000 0.000000
vt 0.384158 0.030324
vt 0.384158 0.219676
vt 0.625000 1.000000
vt 0.375000 1.000000
vt 0.376876 0.771853
vt 0.376876 0.978147
vt 0.379591 0.966690
vt 0.379591 0.783310
vt 0.379591 0.966690
vt 0.376876 0.978147
vt 0.379591 0.966690
vt 0.379591 0.783310
vt 0.379591 0.783310
vt 0.376876 0.771853
vt 0.379591 0.805254
vt 0.379591 0.944746
vt 0.376876 0.956203
vt 0.376876 0.793797
vt 0.376876 0.771853
vt 0.379591 0.783310
vt 0.379591 0.805254
vt 0.376876 0.793797
vt 0.379591 0.966690
vt 0.379591 0.944746
vt 0.376876 0.956203
vt 0.376876 0.978147
vt 0.723502 0.705656
vt 0.723502 0.629314
vt 0.434183 0.264716
vt 0.473502 0.294344
vt 0.473502 0.370686
vt 0.723502 0.630413
vt 0.465557 0.369026
vt 0.679653 0.734840
vt 0.754307 0.724200
vt 0.489671 0.275071
vt 0.473502 0.274492
vt 0.473502 0.274492
vt 0.489671 0.275071
vt 0.434183 0.264716
vt 0.473502 0.294344
vt 0.684183 0.735284
vt 0.476046 0.274583
vt 0.480704 0.274750
vt 0.480704 0.274750
vt 0.476046 0.274583
vt 0.722994 0.723368
vt 0.722556 0.723042
vt 0.722556 0.723042
vt 0.722994 0.723368
vt 0.739671 0.724929
vt 0.755841 0.724351
vt 0.755841 0.724351
vt 0.739671 0.724929
vt 0.723502 0.705656
vt 0.684183 0.735284
vt 0.505841 0.275649
vt 0.505841 0.275649
vt 0.473502 0.257990
vt 0.679653 0.734840
vt 0.754307 0.724200
vt 0.754307 0.724200
vt 0.723502 0.725508
vt 0.723502 0.725508
vt 0.720663 0.710455
vt 0.690983 0.731769
vt 0.720445 0.722030
vt 0.723502 0.723181
vt 0.723502 0.720853
vt 0.488843 0.275041
vt 0.481085 0.274763
vt 0.476512 0.274600
vt 0.473502 0.274492
vt 0.501657 0.275500
vt 0.720445 0.722030
vt 0.720445 0.722030
vt 0.722556 0.723042
vt 0.480704 0.274750
vt 0.476046 0.274583
vt 0.488843 0.275041
vt 0.501657 0.275500
vt 0.476512 0.274600
vt 0.690983 0.731769
vt 0.720663 0.710455
vt 0.716189 0.723412
vt 0.701165 0.727078
vt 0.701165 0.727078
vt 0.716189 0.723412
vt 0.481105 0.274764
vt 0.480919 0.274757
vt 0.480919 0.274757
vt 0.481105 0.274764
vt 0.488843 0.275041
vt 0.501657 0.275500
vt 0.476512 0.274600
vt 0.690983 0.731769
vt 0.720663 0.710455
vt 0.722994 0.723368
vt 0.717634 0.716627
vt 0.721290 0.721047
vt 0.720539 0.722658
vt 0.479838 0.274719
vt 0.487349 0.274988
vt 0.494902 0.275258
vt 0.717634 0.716627
vt 0.721290 0.721047
vt 0.720539 0.722658
vt 0.479838 0.274719
vt 0.494902 0.275258
vt 0.487349 0.274988
vn 1.0000 0.0000 0.0000
vn -0.8455 0.5340 0.0000
vn 0.0000 -1.0000 0.0000
vn 0.8455 0.5340 0.0000
vn 0.8633 0.5024 -0.0469
vn -0.0425 -0.9991 0.0000
vn -0.2727 0.5391 0.7969
vn -0.3639 0.3586 -0.8596
vn -0.2706 0.9627 0.0000
vn 0.3314 0.3917 0.8584
vn -0.0000 0.1481 -0.9890
vn 0.0000 0.1481 0.9890
vn 0.8633 0.5024 0.0469
vn -0.1995 0.2115 -0.9568
vn 0.0225 0.5092 0.8604
vn 0.0396 0.1613 0.9861
vn 0.0225 0.5092 -0.8604
vn -0.1758 0.8611 0.4770
vn -0.1758 0.8611 -0.4770
vn -0.3928 0.9168 0.0724
vn -0.1814 0.7677 0.6146
vn 0.0353 0.8885 -0.4576
vn -0.0364 0.9850 0.1689
vn 0.0000 1.0000 0.0000
vn 0.0000 0.0000 -1.0000
vn 0.0000 0.0000 1.0000
vn -1.0000 0.0000 0.0000
vn -0.0364 0.9850 -0.1689
vn 0.0353 0.8885 0.4576
vn -0.1814 0.7677 -0.6146
vn -0.3928 0.9168 -0.0724
vn -0.0633 0.9555 0.2882
vn -0.0633 0.9555 -0.2882
vn -0.1995 0.2115 0.9568
vn -0.3639 0.3586 0.8596
vn -0.2727 0.5391 -0.7969
vn 0.0000 -0.6896 -0.7241
vn 0.0000 -0.6896 0.7241
vn 0.7241 -0.6896 0.0000
vn -0.3673 0.9301 0.0000
vn -0.7241 -0.6896 0.0000
vn -0.4498 -0.8544 -0.2602
vn -0.4498 -0.8544 0.2602
vn -0.4560 -0.7213 0.5214
vn -0.0575 0.5496 -0.8334
vn -0.0575 0.5496 0.8334
vn -0.4560 -0.7213 -0.5214
vn -0.1433 -0.9897 0.0000
vn -0.0763 0.9971 0.0000
vn 0.0000 0.6896 -0.7241
vn 0.0000 0.6896 0.7241
vn -0.0192 -0.9991 -0.0378
vn -0.0016 -0.6452 0.7640
vn -0.5981 -0.5125 -0.6162
vn -0.5981 -0.5125 0.6162
vn -0.0192 -0.9991 0.0378
vn 0.3314 0.3917 -0.8584
vn 0.0396 0.1613 -0.9861
vn 0.0000 0.6719 0.7407
vn -0.7722 -0.5943 0.2248
vn -0.0016 -0.6452 -0.7640
vn -0.0124 -0.7901 0.6129
vn 0.0105 0.6717 -0.7407
vn 0.0000 1.0000 0.0018
vn -0.7722 -0.5943 -0.2248
vn 0.0000 -0.3097 -0.9508
vn -0.7583 -0.6281 0.1745
vn 0.0000 -0.3097 0.9508
vn -0.7583 -0.6281 -0.1745
vn 0.0000 0.6719 -0.7407
vn 0.0000 1.0000 -0.0018
vn 1.0000 -0.0088 -0.0002
vn 1.0000 -0.0008 -0.0016
vn 0.9999 -0.0123 0.0119
vn 1.0000 -0.0003 0.0030
vn 0.9998 -0.0197 0.0022
vn 1.0000 -0.0008 0.0016
vn 1.0000 -0.0088 0.0002
vn 1.0000 -0.0003 -0.0030
vn 0.9998 -0.0197 -0.0022
vn 0.9999 -0.0123 -0.0119
vn -0.0753 0.9972 0.0008
vn -0.0804 -0.7877 0.6108
vn 0.0157 0.9999 0.0020
vn 0.0157 0.9999 -0.0020
vn -0.0157 -0.9999 0.0030
vn -0.0049 -0.3097 0.9508
vn -0.0157 -0.9999 -0.0030
vn -0.0049 -0.3097 -0.9508
vn 0.0105 0.6717 0.7407
vn -0.0124 -0.7901 -0.6129
vn 0.0024 0.3097 -0.9508
vn 0.0076 1.0000 -0.0030
vn -0.0753 0.9972 -0.0008
vn -0.0697 -0.9976 0.0029
vn -0.0925 -0.3085 0.9467
vn -0.0697 -0.9976 -0.0029
vn -0.0925 -0.3085 -0.9467
vn -0.0788 0.6708 0.7374
vn -0.0804 -0.7877 -0.6108
vn -0.0788 0.6708 -0.7374
vn 1.0000 -0.0089 -0.0010
vn 1.0000 0.0024 -0.0035
vn 0.9998 -0.0135 0.0146
vn 1.0000 0.0027 0.0030
vn 0.9997 -0.0237 0.0041
vn 1.0000 0.0024 0.0035
vn 1.0000 -0.0089 0.0010
vn 1.0000 0.0027 -0.0030
vn 0.9997 -0.0237 -0.0041
vn 0.9998 -0.0135 -0.0146
vn 1.0000 -0.0076 0.0031
vn 1.0000 -0.0076 -0.0031
vn 0.0076 1.0000 0.0030
vn 0.0024 0.3097 0.9508
vn -0.0051 -0.6718 -0.7407
vn 0.0060 0.7901 0.6129
vn -0.0051 -0.6718 0.7407
vn 0.0060 0.7901 -0.6129
vn -0.0076 -1.0000 -0.0019
vn -0.0076 -1.0000 0.0019
usemtl Material
s off
f 18/1/1 15/2/1 32/3/1 34/4/1
f 6/5/2 5/6/2 3/7/2 4/8/2
f 41/9/3 11/10/3 17/11/3 42/12/3
f 37/13/4 29/14/4 27/15/4 38/16/4
f 1/17/5 60/18/5 71/19/5 85/20/5 70/21/5 19/22/5 21/23/5
f 6/5/6 4/8/6 39/24/6 40/25/6
f 5/6/7 40/25/7 28/26/7
f 3/7/8 39/24/8 4/8/8
f 3/7/9 5/6/9 28/26/9 30/27/9
f 76/28/10 75/29/10 61/30/10 62/31/10
f 7/32/11 65/33/11 64/34/11 59/35/11 37/36/11 39/37/11
f 8/38/12 28/26/12 40/25/12
f 73/39/13 86/40/13 76/28/13 62/31/13 2/41/13 24/42/13 25/43/13
f 7/32/14 30/44/14 10/45/14
f 9/46/15 2/41/15 27/47/15 28/26/15
f 2/41/16 62/31/16 61/48/16 38/49/16 27/47/16
f 1/17/17 10/45/17 30/44/17 29/50/17
f 25/43/18 23/51/18 22/52/18
f 26/53/19 19/22/19 20/54/19
f 10/45/20 20/54/20 7/32/20
f 9/46/21 22/52/21 23/51/21
f 1/17/22 26/53/22 10/45/22
f 2/41/23 23/51/23 24/42/23
f 61/48/12 66/55/12 68/56/12 8/38/12 40/25/12 38/49/12
f 16/57/24 15/2/24 28/58/24 27/59/24
f 13/60/24 16/57/24 27/59/24 29/61/24
f 15/2/24 18/1/24 30/62/24 28/58/24
f 18/1/24 13/60/24 29/61/24 30/62/24
f 33/63/24 34/4/24 32/3/24 31/64/24
f 15/2/25 16/57/25 31/64/25 32/3/25
f 13/60/26 18/1/26 34/4/26 33/63/26
f 16/57/27 13/60/27 33/63/27 31/64/27
f 1/17/28 21/23/28 26/53/28
f 2/41/29 9/46/29 23/51/29
f 10/45/30 26/53/30 20/54/30
f 9/46/31 8/38/31 22/52/31
f 25/43/32 24/42/32 23/51/32
f 26/53/33 21/23/33 19/22/33
f 8/38/34 9/46/34 28/26/34
f 7/32/11 39/37/11 30/44/11
f 5/6/35 6/5/35 40/25/35
f 3/7/36 30/27/36 39/24/36
f 11/10/37 41/9/37 39/24/37 37/36/37
f 42/12/38 17/11/38 38/65/38 40/66/38
f 17/11/39 11/10/39 37/36/39 38/65/39
f 35/67/40 36/68/40 40/66/40 39/24/40
f 14/69/41 12/70/41 41/9/41 42/12/41
f 12/70/42 35/67/42 39/24/42 41/9/42
f 36/68/43 14/69/43 42/12/43 40/66/43
f 42/71/44 36/68/44 50/72/44 53/73/44
f 35/67/45 12/70/45 41/74/45
f 14/69/46 36/68/46 42/71/46
f 35/67/47 41/74/47 52/75/47 47/76/47
f 51/77/41 54/78/41 49/79/41 48/80/41
f 41/74/48 42/71/48 53/73/48 54/78/48 51/77/48 52/75/48
f 45/81/27 44/82/27 43/83/27 46/84/27
f 54/78/3 53/73/3 56/85/3 55/86/3
f 50/72/24 49/79/24 58/87/24 57/88/24
f 36/68/49 35/67/49 47/76/49 48/80/49 49/79/49 50/72/49
f 56/85/27 57/88/27 58/87/27 55/86/27
f 52/75/3 51/77/3 43/83/3 44/82/3
f 48/80/24 47/76/24 45/81/24 46/84/24
f 49/79/50 54/78/50 55/86/50 58/87/50
f 53/73/38 50/72/38 57/88/38 56/85/38
f 51/77/51 48/80/51 46/84/51 43/83/51
f 47/76/37 52/75/37 44/82/37 45/81/37
f 70/21/52 69/89/52 63/90/52 65/33/52 7/32/52 20/54/52 19/22/52
f 66/55/53 61/48/53 75/91/53 74/92/53 67/93/53
f 63/90/54 64/94/54 65/33/54
f 66/55/55 67/95/55 68/56/55
f 8/38/56 68/56/56 67/93/56 74/92/56 73/39/56 25/43/56 22/52/56
f 59/35/57 72/96/57 71/97/57 60/18/57
f 59/35/58 60/18/58 1/17/58 29/50/58 37/36/58
f 94/98/59 89/99/59 101/100/59 100/101/59
f 74/92/60 75/91/60 103/102/60 102/103/60
f 59/35/61 64/34/61 63/90/61 69/89/61 72/104/61
f 81/105/62 82/106/62 112/107/62 111/108/62
f 78/109/63 87/110/63 108/111/63 107/112/63
f 93/113/64 91/114/64 99/115/64 98/116/64
f 72/104/65 69/89/65 96/117/65 95/118/65
f 75/29/66 76/28/66 90/119/66 104/120/66 103/121/66
f 73/39/67 74/92/67 102/103/67 101/100/67 89/99/67
f 71/97/68 72/96/68 95/122/68 99/123/68 91/124/68
f 69/89/69 70/21/69 92/125/69 97/126/69 96/117/69
f 92/125/70 93/113/70 98/116/70 97/126/70
f 70/21/70 85/20/70 93/113/70 92/125/70
f 85/20/64 71/19/64 91/114/64 93/113/64
f 90/119/71 94/98/71 100/101/71 104/120/71
f 76/28/71 86/40/71 94/98/71 90/119/71
f 86/40/59 73/39/59 89/99/59 94/98/59
f 77/127/72 80/128/72 95/118/72 96/117/72
f 78/109/73 77/127/73 96/117/73 97/126/73
f 79/129/74 87/110/74 98/130/74 99/131/74
f 80/128/75 79/129/75 99/131/75 95/118/75
f 81/105/76 88/132/76 100/101/76 101/100/76
f 82/106/77 81/105/77 101/100/77 102/133/77
f 83/134/78 82/106/78 102/133/78 103/135/78
f 84/136/79 83/134/79 103/135/79 104/120/79
f 87/110/80 78/109/80 97/126/80 98/130/80
f 88/132/81 84/136/81 104/120/81 100/101/81
f 108/111/82 109/137/82 129/138/82 128/139/82
f 111/108/83 112/107/83 132/140/83 131/141/83
f 87/110/84 79/129/84 109/137/84 108/111/84
f 84/136/85 88/132/85 110/142/85 114/143/85
f 82/106/86 83/134/86 113/144/86 112/107/86
f 79/129/87 80/128/87 105/145/87 109/137/87
f 80/128/88 77/127/88 106/146/88 105/145/88
f 83/134/89 84/136/89 114/143/89 113/144/89
f 88/132/90 81/105/90 111/108/90 110/142/90
f 77/127/91 78/109/91 107/112/91 106/146/91
f 119/147/92 115/148/92 135/149/92 139/150/92
f 122/151/93 123/152/93 143/153/93 142/154/93
f 114/143/94 110/142/94 130/155/94 134/156/94
f 112/107/95 113/144/95 133/157/95 132/140/95
f 109/137/96 105/145/96 125/158/96 129/138/96
f 105/145/97 106/146/97 126/159/97 125/158/97
f 113/144/98 114/143/98 134/156/98 133/157/98
f 110/142/99 111/108/99 131/141/99 130/155/99
f 106/146/100 107/112/100 127/160/100 126/159/100
f 107/112/101 108/111/101 128/139/101 127/160/101
f 116/161/102 115/148/102 125/158/102 126/159/102
f 117/162/103 116/161/103 126/159/103 127/160/103
f 119/147/104 118/163/104 128/139/104 129/138/104
f 115/148/105 119/147/105 129/138/105 125/158/105
f 121/164/106 120/165/106 130/155/106 131/141/106
f 122/151/107 121/164/107 131/141/107 132/140/107
f 123/152/108 122/151/108 132/140/108 133/157/108
f 124/166/109 123/152/109 133/157/109 134/156/109
f 118/163/110 117/162/110 127/160/110 128/139/110
f 120/165/111 124/166/111 134/156/111 130/155/111
f 136/167/112 137/168/112 138/169/112 139/150/112 135/149/112
f 141/170/113 142/154/113 143/153/113 144/171/113 140/172/113
f 115/148/114 116/161/114 136/167/114 135/149/114
f 123/152/115 124/166/115 144/171/115 143/153/115
f 120/165/116 121/164/116 141/170/116 140/172/116
f 116/161/117 117/162/117 137/168/117 136/167/117
f 117/162/118 118/163/118 138/169/118 137/168/118
f 121/164/119 122/151/119 142/154/119 141/170/119
f 118/163/120 119/147/120 139/150/120 138/169/120
f 124/166/121 120/165/121 140/172/121 144/171/121
