# Blender v2.80 (sub 75) OBJ File: 'fighter_hammer.blend'
# www.blender.org
mtllib fighter_hammer_windshield.mtl
o Cube
v 1.000000 0.713811 -0.713811
v 1.000000 -0.713811 -0.713811
v 1.000000 0.713811 0.713811
v 1.000000 -0.713811 0.713811
v -1.601710 -1.414251 -3.026886
v -2.051314 -0.961926 -3.026886
v -2.051314 0.961926 -3.026886
v -1.601710 1.414251 -3.026886
v -1.601710 1.414251 5.805483
v -2.051314 0.961926 -5.805483
v -1.601710 1.414251 -5.805483
v -1.601710 -1.414251 -5.805483
v 1.000000 0.000000 -0.948786
v 1.000000 0.000000 0.948786
v 1.000000 0.948786 0.000000
v 1.000000 -0.948786 0.000000
v -0.166285 0.272375 -0.272375
v 0.661405 0.521621 -0.521621
v 0.661405 -0.521621 -0.521621
v 0.661405 0.521621 0.521621
v 0.661405 -0.521621 0.521621
v 0.661405 0.000000 -0.693330
v 0.661405 0.000000 0.693330
v 0.661405 0.693330 0.000000
v 0.661405 -0.693330 0.000000
v -0.166285 -0.272375 -0.272375
v -0.166285 0.272375 0.272375
v -0.166285 -0.272375 0.272375
v -0.166285 0.000000 -0.362036
v -0.166285 0.000000 0.362036
v -0.166285 0.362036 0.000000
v -0.166285 -0.362036 0.000000
v -0.166285 0.000000 0.000000
v -2.051314 -0.961926 -5.805483
v -1.601710 -1.414251 5.805483
v -2.051314 0.961926 5.805483
v -2.051314 -0.961926 5.805483
v -2.051314 0.961926 -1.414251
v -2.051314 1.414251 -0.961926
v -1.601710 1.414251 -1.414251
v -2.051314 -1.414251 -0.961926
v -2.051314 -0.961926 -1.414251
v -1.601710 -1.414251 -1.414251
v -2.051314 1.414251 0.961926
v -2.051314 0.961926 1.414251
v -1.601710 1.414251 1.414251
v -2.051314 -0.961926 1.414251
v -2.051314 -1.414251 0.961926
v -1.601710 -1.414251 1.414251
v -6.951158 0.871118 -0.418793
v -6.951158 0.418793 -0.871118
v -6.951158 -0.418793 -0.871118
v -6.951158 -0.871118 -0.418793
v -6.951158 0.418793 0.871118
v -6.951158 0.871118 0.418793
v -6.951158 -0.871118 0.418793
v -6.951158 -0.418793 0.871118
v -2.051314 0.961926 3.026886
v -1.601710 1.414251 3.026886
v -1.601710 -1.414251 3.026886
v -2.051314 -0.961926 3.026886
v 0.318919 1.414251 -1.414251
v 0.777187 1.414251 -0.955982
v 0.845013 1.272561 -0.983747
v 0.877755 1.098105 -1.098105
v 0.845013 0.983747 -1.272561
v 0.318919 -1.414251 -1.414251
v 0.845013 -0.983747 -1.272561
v 0.877755 -1.098105 -1.098105
v 0.845013 -1.272561 -0.983747
v 0.777187 -1.414251 -0.955982
v 0.318919 1.414251 1.414251
v 0.845013 0.983747 1.272561
v 0.877755 1.098105 1.098105
v 0.845013 1.272561 0.983747
v 0.777187 1.414251 0.955982
v 0.318919 -1.414251 1.414251
v 0.777187 -1.414251 0.955982
v 0.845013 -1.272561 0.983747
v 0.877755 -1.098105 1.098105
v 0.845013 -0.983747 1.272561
v 0.318919 -1.414251 3.026886
v 0.318919 1.414251 3.026886
v 0.318919 -1.414251 -3.026886
v 0.318919 1.414251 -3.026886
v -0.015949 -0.955982 5.805483
v -0.474217 -1.414251 5.805483
v -0.474217 -1.414251 -5.805483
v -0.015949 -0.955982 -5.805483
v -0.015949 0.955982 -5.805483
v -0.474217 1.414251 -5.805483
v -0.474217 1.414251 5.805483
v -0.015949 0.955982 5.805483
v -2.652333 0.961926 -7.626886
v -2.652333 -0.961926 -7.626886
v -2.516306 1.414251 -7.741026
v -2.652333 -0.961926 7.626886
v -2.652333 0.961926 7.626886
v -2.036540 -0.955982 -8.143598
v -2.036540 0.955982 -8.143598
v -2.175187 -1.414251 8.027259
v -2.516306 -1.414251 7.741026
v -2.516306 1.414251 7.741026
v -2.516306 -1.414251 -7.741026
v -2.175187 1.414251 8.027259
v -2.036540 0.955982 8.143599
v -2.175187 1.414251 -8.027259
v -2.036540 -0.955982 8.143599
v -2.175187 -1.414251 -8.027259
v -4.295794 1.057250 -9.382031
v -4.295794 -1.057250 -9.382031
v -4.278490 1.554398 -9.522439
v -4.295794 -1.057250 9.382030
v -4.295794 1.057250 9.382030
v -4.217461 -1.050717 -10.017653
v -4.217461 1.050717 -10.017653
v -4.235098 -1.554398 9.874539
v -4.278490 -1.554398 9.522437
v -4.278490 1.554398 9.522437
v -4.278490 -1.554398 -9.522439
v -4.235098 1.554398 9.874539
v -4.217461 1.050717 10.017652
v -4.235098 1.554398 -9.874541
v -4.217461 -1.050717 10.017652
v -4.235098 -1.554398 -9.874541
v -7.375323 -0.638157 1.327409
v -7.375323 -1.327409 0.638157
v -7.375323 -1.327409 -0.638157
v -7.375323 -0.638157 -1.327409
v -7.375323 0.638157 -1.327409
v -7.375323 1.327409 -0.638157
v -7.375323 1.327409 0.638157
v -7.375323 0.638157 1.327409
v -10.404068 -0.638157 1.327409
v -10.404068 -1.327409 0.638157
v -10.404068 -1.327409 -0.638157
v -10.404068 -0.638157 -1.327409
v -10.404068 0.638157 -1.327409
v -10.404068 1.327409 -0.638157
v -10.404068 1.327409 0.638157
v -10.404068 0.638157 1.327409
v -10.600652 -0.469405 -0.976394
v -10.555807 -0.447846 -0.931550
v -10.555807 -0.931550 -0.447846
v -10.600652 -0.976394 -0.469406
v -10.600652 -0.976394 0.469405
v -10.555807 -0.931550 0.447846
v -10.555807 -0.447846 0.931549
v -10.600652 -0.469405 0.976394
v -8.346592 -0.514677 1.070560
v -8.346592 -1.070561 0.514676
v -8.346592 -1.070561 -0.514677
v -8.346592 -0.514677 -1.070562
v -8.346592 0.514677 -1.070562
v -8.346592 1.070561 -0.514677
v -8.346592 1.070561 0.514676
v -8.346592 0.514677 1.070560
v -8.346592 -0.381323 0.793176
v -8.346592 -0.793177 0.381322
v -8.346592 -0.793177 -0.381324
v -8.346592 -0.381323 -0.793178
v -8.346592 0.381323 -0.793178
v -8.346592 0.793177 -0.381324
v -8.346592 0.793177 0.381322
v -8.346592 0.381323 0.793176
v -10.039515 -0.381323 0.793176
v -10.039515 -0.793177 0.381322
v -10.039515 -0.793177 -0.381324
v -10.039515 -0.381323 -0.793178
v -10.039515 0.381323 -0.793178
v -10.039515 0.793177 -0.381324
v -10.039515 0.793177 0.381322
v -10.039515 0.381323 0.793176
v -10.039515 -0.346635 0.721023
v -10.039515 -0.721024 0.346634
v -10.039515 -0.721024 -0.346636
v -10.039515 -0.346635 -0.721024
v -10.039515 0.346635 -0.721024
v -10.039515 0.721024 -0.346636
v -10.039515 0.721024 0.346634
v -10.039515 0.346635 0.721023
v -7.930053 -0.346635 0.721023
v -7.930053 -0.721024 0.346634
v -7.930053 -0.721024 -0.346636
v -7.930053 -0.346635 -0.721024
v -7.930053 0.346635 -0.721024
v -7.930053 0.721024 -0.346636
v -7.930053 0.721024 0.346634
v -7.930053 0.346635 0.721023
v -10.404068 -0.539453 1.122097
v -10.352531 -0.514677 1.070561
v -10.404068 -0.551118 1.034119
v -10.352531 -1.070561 0.514676
v -10.404068 -1.122098 0.539453
v -10.404068 -1.034119 0.551118
v -10.404068 -1.122098 -0.539453
v -10.352531 -1.070561 -0.514677
v -10.404068 -1.034119 -0.551119
v -10.352531 -0.514677 -1.070561
v -10.404068 -0.539453 -1.122098
v -10.404068 -0.551118 -1.034120
v -10.404068 0.539453 -1.122098
v -10.352531 0.514677 -1.070561
v -10.404068 0.551118 -1.034120
v -10.352531 1.070561 -0.514677
v -10.404068 1.122098 -0.539453
v -10.404068 1.034119 -0.551119
v -10.404068 1.122098 0.539453
v -10.352531 1.070561 0.514676
v -10.404068 1.034119 0.551118
v -10.352531 0.514677 1.070561
v -10.404068 0.539453 1.122097
v -10.404068 0.551118 1.034119
v -10.600652 0.469405 -0.976394
v -10.555807 0.447846 -0.931550
v -10.555807 0.931550 -0.447846
v -10.600652 0.976394 -0.469406
v -10.600652 0.976394 0.469405
v -10.555807 0.931550 0.447846
v -10.555807 0.447846 0.931549
v -10.600652 0.469405 0.976394
v 0.777187 -0.955982 1.414251
v 0.777187 -0.955982 3.026886
v 0.777187 -0.955982 -3.026886
v 0.777187 -0.955982 -1.414251
v 0.777187 0.955982 -1.414251
v 0.777187 0.955982 -3.026886
v 0.777187 0.955982 3.026886
v 0.777187 0.955982 1.414251
v 0.777187 0.143178 -1.824099
v 0.777187 0.412791 -2.093713
v 0.777187 0.628014 -1.661709
v 0.777187 -0.412791 -2.093713
v 0.777187 -0.143178 -1.824100
v 0.777187 -0.628014 -1.661710
v 0.777187 0.412791 2.093713
v 0.777187 0.143178 1.824100
v 0.777187 0.628014 1.661710
v 0.777187 -0.143178 1.824099
v 0.777187 -0.412791 2.093713
v 0.777187 -0.628014 1.661709
v 0.777187 -0.412791 2.347423
v 0.777187 -0.143178 2.617037
v 0.777187 -0.628014 2.779427
v 0.777187 0.143178 2.617037
v 0.777187 0.412791 2.347423
v 0.777187 0.628014 2.779427
v 0.777187 -0.143178 -2.617037
v 0.777187 -0.412791 -2.347423
v 0.777187 -0.628014 -2.779427
v 0.777187 0.412791 -2.347423
v 0.777187 0.143178 -2.617037
v 0.777187 0.628014 -2.779427
v 1.997388 -0.233727 2.167884
v 1.997388 -0.069007 2.003164
v 1.997388 -0.069007 2.437972
v 1.997388 -0.233727 2.273252
v 1.997388 -0.233727 -2.273252
v 1.997388 -0.069007 -2.437972
v 1.997388 -0.069007 -2.003164
v 1.997388 -0.233727 -2.167884
v 1.997388 0.233727 -2.167884
v 1.997388 0.069007 -2.003164
v 1.997388 0.069007 -2.437972
v 1.997388 0.233727 -2.273252
v 1.997388 0.233727 2.273252
v 1.997388 0.069007 2.437972
v 1.997388 0.069007 2.003164
v 1.997388 0.233727 2.167884
v 1.997388 0.412791 2.093713
v 1.997388 0.143178 1.824100
v 1.997388 -0.143178 1.824099
v 1.997388 -0.412791 2.093713
v 1.997388 -0.412791 -2.093713
v 1.997388 -0.143178 -1.824100
v 1.997388 0.143178 -1.824099
v 1.997388 0.412791 -2.093713
v 1.997388 0.412791 -2.347423
v 1.997388 0.143178 -2.617037
v 1.997388 -0.412791 2.347423
v 1.997388 -0.143178 2.617037
v 1.997388 0.143178 2.617037
v 1.997388 0.412791 2.347423
v 1.997388 -0.143178 -2.617037
v 1.997388 -0.412791 -2.347423
v 0.197400 0.233727 2.167884
v 0.197400 0.069007 2.003164
v 0.197400 -0.069007 2.003164
v 0.197400 -0.233727 2.167884
v 0.197400 -0.233727 -2.167884
v 0.197400 -0.069007 -2.003164
v 0.197400 0.069007 -2.003164
v 0.197400 0.233727 -2.167884
v 0.197399 0.233727 -2.273252
v 0.197399 0.069007 -2.437972
v 0.197399 -0.233727 2.273252
v 0.197399 -0.069007 2.437972
v 0.197399 0.069007 2.437972
v 0.197399 0.233727 2.273252
v 0.197399 -0.069007 -2.437972
v 0.197399 -0.233727 -2.273252
v 1.230100 0.000000 -0.656805
v 1.230100 -0.494141 -0.494141
v 1.230100 0.000000 0.656805
v 1.230100 -0.494141 0.494141
v 1.230100 0.656805 0.000000
v 1.230100 0.494141 0.494141
v 1.230100 -0.656805 0.000000
v 1.230100 0.494141 -0.494141
vt 0.000000 0.000000
vt 0.000000 0.000000
vt 0.000000 0.000000
vt 0.000000 0.000000
vt 0.000000 0.000000
vt 0.000000 0.000000
vt 0.000000 0.000000
vt 0.000000 0.000000
vt 0.000000 0.000000
vt 0.000000 0.000000
vt 0.000000 0.000000
vt 0.000000 0.000000
vt 0.000000 0.000000
vt 0.000000 0.000000
vt 0.000000 0.000000
vt 0.000000 0.000000
vn 1.0000 0.0000 0.0000
vn 0.7696 -0.1997 -0.6065
vn 0.7696 -0.1997 0.6065
vn 0.7696 0.6065 0.1997
vn 0.7696 -0.6065 -0.1997
vn 0.7696 0.1997 -0.6065
vn 0.7696 0.1997 0.6065
vn 0.7696 0.6065 -0.1997
vn 0.7696 -0.6065 0.1997
usemtl Material
s off
f 302/1/1 309/2/1 306/3/1 307/4/1 304/5/1 305/6/1 308/7/1 303/8/1
f 302/1/2 303/8/2 2/9/2 13/10/2
f 305/6/3 304/5/3 14/11/3 4/12/3
f 307/4/4 306/3/4 15/13/4 3/14/4
f 303/8/5 308/7/5 16/15/5 2/9/5
f 309/2/6 302/1/6 13/10/6 1/16/6
f 304/5/7 307/4/7 3/14/7 14/11/7
f 306/3/8 309/2/8 1/16/8 15/13/8
f 308/7/9 305/6/9 4/12/9 16/15/9
o Cube.002
v 1.000000 0.713811 -0.713811
v 1.000000 -0.713811 -0.713811
v 1.000000 0.713811 0.713811
v 1.000000 -0.713811 0.713811
v -1.601710 -1.414251 -3.026886
v -2.051314 -0.961926 -3.026886
v -2.051314 0.961926 -3.026886
v -1.601710 1.414251 -3.026886
v -1.601710 1.414251 5.805483
v -2.051314 0.961926 -5.805483
v -1.601710 1.414251 -5.805483
v -1.601710 -1.414251 -5.805483
v 1.000000 0.000000 -0.948786
v 1.000000 0.000000 0.948786
v 1.000000 0.948786 0.000000
v 1.000000 -0.948786 0.000000
v -0.166285 0.272375 -0.272375
v 0.661405 0.521621 -0.521621
v 0.661405 -0.521621 -0.521621
v 0.661405 0.521621 0.521621
v 0.661405 -0.521621 0.521621
v 0.661405 0.000000 -0.693330
v 0.661405 0.000000 0.693330
v 0.661405 0.693330 0.000000
v 0.661405 -0.693330 0.000000
v -0.166285 -0.272375 -0.272375
v -0.166285 0.272375 0.272375
v -0.166285 -0.272375 0.272375
v -0.166285 0.000000 -0.362036
v -0.166285 0.000000 0.362036
v -0.166285 0.362036 0.000000
v -0.166285 -0.362036 0.000000
v -0.166285 0.000000 0.000000
v -2.051314 -0.961926 -5.805483
v -1.601710 -1.414251 5.805483
v -2.051314 0.961926 5.805483
v -2.051314 -0.961926 5.805483
v -2.051314 0.961926 -1.414251
v -2.051314 1.414251 -0.961926
v -1.601710 1.414251 -1.414251
v -2.051314 -1.414251 -0.961926
v -2.051314 -0.961926 -1.414251
v -1.601710 -1.414251 -1.414251
v -2.051314 1.414251 0.961926
v -2.051314 0.961926 1.414251
v -1.601710 1.414251 1.414251
v -2.051314 -0.961926 1.414251
v -2.051314 -1.414251 0.961926
v -1.601710 -1.414251 1.414251
v -6.951158 0.871118 -0.418793
v -6.951158 0.418793 -0.871118
v -6.951158 -0.418793 -0.871118
v -6.951158 -0.871118 -0.418793
v -6.951158 0.418793 0.871118
v -6.951158 0.871118 0.418793
v -6.951158 -0.871118 0.418793
v -6.951158 -0.418793 0.871118
v -2.051314 0.961926 3.026886
v -1.601710 1.414251 3.026886
v -1.601710 -1.414251 3.026886
v -2.051314 -0.961926 3.026886
v 0.318919 1.414251 -1.414251
v 0.777187 1.414251 -0.955982
v 0.845013 1.272561 -0.983747
v 0.877755 1.098105 -1.098105
v 0.845013 0.983747 -1.272561
v 0.318919 -1.414251 -1.414251
v 0.845013 -0.983747 -1.272561
v 0.877755 -1.098105 -1.098105
v 0.845013 -1.272561 -0.983747
v 0.777187 -1.414251 -0.955982
v 0.318919 1.414251 1.414251
v 0.845013 0.983747 1.272561
v 0.877755 1.098105 1.098105
v 0.845013 1.272561 0.983747
v 0.777187 1.414251 0.955982
v 0.318919 -1.414251 1.414251
v 0.777187 -1.414251 0.955982
v 0.845013 -1.272561 0.983747
v 0.877755 -1.098105 1.098105
v 0.845013 -0.983747 1.272561
v 0.318919 -1.414251 3.026886
v 0.318919 1.414251 3.026886
v 0.318919 -1.414251 -3.026886
v 0.318919 1.414251 -3.026886
v -0.015949 -0.955982 5.805483
v -0.474217 -1.414251 5.805483
v -0.474217 -1.414251 -5.805483
v -0.015949 -0.955982 -5.805483
v -0.015949 0.955982 -5.805483
v -0.474217 1.414251 -5.805483
v -0.474217 1.414251 5.805483
v -0.015949 0.955982 5.805483
v -2.652333 0.961926 -7.626886
v -2.652333 -0.961926 -7.626886
v -2.516306 1.414251 -7.741026
v -2.652333 -0.961926 7.626886
v -2.652333 0.961926 7.626886
v -2.036540 -0.955982 -8.143598
v -2.036540 0.955982 -8.143598
v -2.175187 -1.414251 8.027259
v -2.516306 -1.414251 7.741026
v -2.516306 1.414251 7.741026
v -2.516306 -1.414251 -7.741026
v -2.175187 1.414251 8.027259
v -2.036540 0.955982 8.143599
v -2.175187 1.414251 -8.027259
v -2.036540 -0.955982 8.143599
v -2.175187 -1.414251 -8.027259
v -4.295794 1.057250 -9.382031
v -4.295794 -1.057250 -9.382031
v -4.278490 1.554398 -9.522439
v -4.295794 -1.057250 9.382030
v -4.295794 1.057250 9.382030
v -4.217461 -1.050717 -10.017653
v -4.217461 1.050717 -10.017653
v -4.235098 -1.554398 9.874539
v -4.278490 -1.554398 9.522437
v -4.278490 1.554398 9.522437
v -4.278490 -1.554398 -9.522439
v -4.235098 1.554398 9.874539
v -4.217461 1.050717 10.017652
v -4.235098 1.554398 -9.874541
v -4.217461 -1.050717 10.017652
v -4.235098 -1.554398 -9.874541
v -7.375323 -0.638157 1.327409
v -7.375323 -1.327409 0.638157
v -7.375323 -1.327409 -0.638157
v -7.375323 -0.638157 -1.327409
v -7.375323 0.638157 -1.327409
v -7.375323 1.327409 -0.638157
v -7.375323 1.327409 0.638157
v -7.375323 0.638157 1.327409
v -10.404068 -0.638157 1.327409
v -10.404068 -1.327409 0.638157
v -10.404068 -1.327409 -0.638157
v -10.404068 -0.638157 -1.327409
v -10.404068 0.638157 -1.327409
v -10.404068 1.327409 -0.638157
v -10.404068 1.327409 0.638157
v -10.404068 0.638157 1.327409
v -10.600652 -0.469405 -0.976394
v -10.555807 -0.447846 -0.931550
v -10.555807 -0.931550 -0.447846
v -10.600652 -0.976394 -0.469406
v -10.600652 -0.976394 0.469405
v -10.555807 -0.931550 0.447846
v -10.555807 -0.447846 0.931549
v -10.600652 -0.469405 0.976394
v -8.346592 -0.514677 1.070560
v -8.346592 -1.070561 0.514676
v -8.346592 -1.070561 -0.514677
v -8.346592 -0.514677 -1.070562
v -8.346592 0.514677 -1.070562
v -8.346592 1.070561 -0.514677
v -8.346592 1.070561 0.514676
v -8.346592 0.514677 1.070560
v -8.346592 -0.381323 0.793176
v -8.346592 -0.793177 0.381322
v -8.346592 -0.793177 -0.381324
v -8.346592 -0.381323 -0.793178
v -8.346592 0.381323 -0.793178
v -8.346592 0.793177 -0.381324
v -8.346592 0.793177 0.381322
v -8.346592 0.381323 0.793176
v -10.039515 -0.381323 0.793176
v -10.039515 -0.793177 0.381322
v -10.039515 -0.793177 -0.381324
v -10.039515 -0.381323 -0.793178
v -10.039515 0.381323 -0.793178
v -10.039515 0.793177 -0.381324
v -10.039515 0.793177 0.381322
v -10.039515 0.381323 0.793176
v -10.039515 -0.346635 0.721023
v -10.039515 -0.721024 0.346634
v -10.039515 -0.721024 -0.346636
v -10.039515 -0.346635 -0.721024
v -10.039515 0.346635 -0.721024
v -10.039515 0.721024 -0.346636
v -10.039515 0.721024 0.346634
v -10.039515 0.346635 0.721023
v -7.930053 -0.346635 0.721023
v -7.930053 -0.721024 0.346634
v -7.930053 -0.721024 -0.346636
v -7.930053 -0.346635 -0.721024
v -7.930053 0.346635 -0.721024
v -7.930053 0.721024 -0.346636
v -7.930053 0.721024 0.346634
v -7.930053 0.346635 0.721023
v -10.404068 -0.539453 1.122097
v -10.352531 -0.514677 1.070561
v -10.404068 -0.551118 1.034119
v -10.352531 -1.070561 0.514676
v -10.404068 -1.122098 0.539453
v -10.404068 -1.034119 0.551118
v -10.404068 -1.122098 -0.539453
v -10.352531 -1.070561 -0.514677
v -10.404068 -1.034119 -0.551119
v -10.352531 -0.514677 -1.070561
v -10.404068 -0.539453 -1.122098
v -10.404068 -0.551118 -1.034120
v -10.404068 0.539453 -1.122098
v -10.352531 0.514677 -1.070561
v -10.404068 0.551118 -1.034120
v -10.352531 1.070561 -0.514677
v -10.404068 1.122098 -0.539453
v -10.404068 1.034119 -0.551119
v -10.404068 1.122098 0.539453
v -10.352531 1.070561 0.514676
v -10.404068 1.034119 0.551118
v -10.352531 0.514677 1.070561
v -10.404068 0.539453 1.122097
v -10.404068 0.551118 1.034119
v -10.600652 0.469405 -0.976394
v -10.555807 0.447846 -0.931550
v -10.555807 0.931550 -0.447846
v -10.600652 0.976394 -0.469406
v -10.600652 0.976394 0.469405
v -10.555807 0.931550 0.447846
v -10.555807 0.447846 0.931549
v -10.600652 0.469405 0.976394
v 0.777187 -0.955982 1.414251
v 0.777187 -0.955982 3.026886
v 0.777187 -0.955982 -3.026886
v 0.777187 -0.955982 -1.414251
v 0.777187 0.955982 -1.414251
v 0.777187 0.955982 -3.026886
v 0.777187 0.955982 3.026886
v 0.777187 0.955982 1.414251
v 0.777187 0.143178 -1.824099
v 0.777187 0.412791 -2.093713
v 0.777187 0.628014 -1.661709
v 0.777187 -0.412791 -2.093713
v 0.777187 -0.143178 -1.824100
v 0.777187 -0.628014 -1.661710
v 0.777187 0.412791 2.093713
v 0.777187 0.143178 1.824100
v 0.777187 0.628014 1.661710
v 0.777187 -0.143178 1.824099
v 0.777187 -0.412791 2.093713
v 0.777187 -0.628014 1.661709
v 0.777187 -0.412791 2.347423
v 0.777187 -0.143178 2.617037
v 0.777187 -0.628014 2.779427
v 0.777187 0.143178 2.617037
v 0.777187 0.412791 2.347423
v 0.777187 0.628014 2.779427
v 0.777187 -0.143178 -2.617037
v 0.777187 -0.412791 -2.347423
v 0.777187 -0.628014 -2.779427
v 0.777187 0.412791 -2.347423
v 0.777187 0.143178 -2.617037
v 0.777187 0.628014 -2.779427
v 1.997388 -0.233727 2.167884
v 1.997388 -0.069007 2.003164
v 1.997388 -0.069007 2.437972
v 1.997388 -0.233727 2.273252
v 1.997388 -0.233727 -2.273252
v 1.997388 -0.069007 -2.437972
v 1.997388 -0.069007 -2.003164
v 1.997388 -0.233727 -2.167884
v 1.997388 0.233727 -2.167884
v 1.997388 0.069007 -2.003164
v 1.997388 0.069007 -2.437972
v 1.997388 0.233727 -2.273252
v 1.997388 0.233727 2.273252
v 1.997388 0.069007 2.437972
v 1.997388 0.069007 2.003164
v 1.997388 0.233727 2.167884
v 1.997388 0.412791 2.093713
v 1.997388 0.143178 1.824100
v 1.997388 -0.143178 1.824099
v 1.997388 -0.412791 2.093713
v 1.997388 -0.412791 -2.093713
v 1.997388 -0.143178 -1.824100
v 1.997388 0.143178 -1.824099
v 1.997388 0.412791 -2.093713
v 1.997388 0.412791 -2.347423
v 1.997388 0.143178 -2.617037
v 1.997388 -0.412791 2.347423
v 1.997388 -0.143178 2.617037
v 1.997388 0.143178 2.617037
v 1.997388 0.412791 2.347423
v 1.997388 -0.143178 -2.617037
v 1.997388 -0.412791 -2.347423
v 0.197400 0.233727 2.167884
v 0.197400 0.069007 2.003164
v 0.197400 -0.069007 2.003164
v 0.197400 -0.233727 2.167884
v 0.197400 -0.233727 -2.167884
v 0.197400 -0.069007 -2.003164
v 0.197400 0.069007 -2.003164
v 0.197400 0.233727 -2.167884
v 0.197399 0.233727 -2.273252
v 0.197399 0.069007 -2.437972
v 0.197399 -0.233727 2.273252
v 0.197399 -0.069007 2.437972
v 0.197399 0.069007 2.437972
v 0.197399 0.233727 2.273252
v 0.197399 -0.069007 -2.437972
v 0.197399 -0.233727 -2.273252
v 1.230100 0.000000 -0.656805
v 1.230100 -0.494141 -0.494141
v 1.230100 0.000000 0.656805
v 1.230100 -0.494141 0.494141
v 1.230100 0.656805 0.000000
v 1.230100 0.494141 0.494141
v 1.230100 -0.656805 0.000000
v 1.230100 0.494141 -0.494141
vt 0.000000 0.000000
vt 0.000000 0.000000
vt 0.000000 0.000000
vt 0.000000 0.000000
vt 0.000000 0.000000
vt 0.000000 0.000000
vt 0.000000 0.000000
vt 0.000000 0.000000
vt 0.000000 0.000000
vt 0.000000 0.000000
vt 0.000000 0.000000
vt 0.000000 0.000000
vt 0.000000 0.000000
vt 0.000000 0.000000
vt 0.000000 0.000000
vt 0.000000 0.000000
vn -1.0000 0.0000 0.0000
vn -0.7696 0.1997 0.6065
vn -0.7696 0.1997 -0.6065
vn -0.7696 -0.6065 -0.1997
vn -0.7696 0.6065 0.1997
vn -0.7696 -0.1997 0.6065
vn -0.7696 -0.1997 -0.6065
vn -0.7696 -0.6065 0.1997
vn -0.7696 0.6065 -0.1997
usemtl Material
s off
f 611/17/10 612/18/10 617/19/10 614/20/10 613/21/10 616/22/10 615/23/10 618/24/10
f 611/17/11 322/25/11 311/26/11 612/18/11
f 614/20/12 313/27/12 323/28/12 613/21/12
f 616/22/13 312/29/13 324/30/13 615/23/13
f 612/18/14 311/26/14 325/31/14 617/19/14
f 618/24/15 310/32/15 322/25/15 611/17/15
f 613/21/16 323/28/16 312/29/16 616/22/16
f 615/23/17 324/30/17 310/32/17 618/24/17
f 617/19/18 325/31/18 313/27/18 614/20/18
